<?xml version="1.0" encoding="utf-8"?>
<!-- Generator: Adobe Illustrator 15.0.0, SVG Export Plug-In . SVG Version: 6.00 Build 0)  -->
<!DOCTYPE svg PUBLIC "-//W3C//DTD SVG 1.1//EN" "http://www.w3.org/Graphics/SVG/1.1/DTD/svg11.dtd">
<svg version="1.1" id="Layer_1" xmlns="http://www.w3.org/2000/svg" xmlns:xlink="http://www.w3.org/1999/xlink" x="0px" y="0px" width="76.729px" height="81.726px" viewBox="-6.468 -6.776 76.729 81.726" enable-background="new -6.468 -6.776 76.729 81.726" xml:space="preserve"><g><g>
<rect class="bullet-part-1" x="18.267" y="17.955" transform="matrix(-0.7071 0.7071 -0.7071 -0.7071 76.7864 31.3677)" fill="#FFFFFF" width="27.261" height="27.262"/><path class="bullet-part-2" fill="#D8D8D8" d="M31.896,13.724l17.865,17.861L31.896,49.451L14.033,31.586L31.896,13.724 M31.896,10.896l-1.414,1.414 L12.619,30.172l-1.415,1.414L12.619,33l17.863,17.865l1.414,1.414l1.414-1.414L51.176,33l1.414-1.414l-1.414-1.415L33.31,12.31 L31.896,10.896L31.896,10.896z"/></g><path class="bullet-part-3" enable-background="new" d="M31.896-1.776L-6.468,34.588l38.364,40.361l38.365-40.361L31.896-1.776z M5.798,31.588L31.898,8.487l26.1,23.101l-26.101,31.1L5.798,31.588z"/><path class="bullet-part-4" fill="#FFFFFF" d="M31.896-6.776L-6.468,31.588l38.364,38.361l38.365-38.361L31.896-6.776z M5.798,31.588L31.898,5.487 l26.1,26.101l-26.101,26.1L5.798,31.588z"/><linearGradient id="SVGID_1_" gradientUnits="userSpaceOnUse" x1="31.8577" y1="64.8787" x2="31.8577" y2="29.1526" gradientTransform="matrix(1 0 0 -1 0.04 78.603)"><stop  offset="0" style="stop-color:#000000"/><stop offset="1" style="stop-color:#FFFFFF"/></linearGradient><polygon class="bullet-part-5" fill="url(#SVGID_1_)" enable-background="new" points="14.033,31.586 31.896,13.724 49.761,31.586 31.896,49.451"/></g></svg>
